<?xml version="1.0" encoding="UTF-8" standalone="no"?>
<svg
   viewBox="0 0 24 24"
   version="1.1"
   width="24"
   height="24"
   xmlns="http://www.w3.org/2000/svg"
   xmlns:svg="http://www.w3.org/2000/svg">
 <path
     fill="none"
     d="M 0,0 H 24 V 24 H 0 Z"
     id="path5" />
  <path
    fill="#1668dc"
    d="M 17.58,6.25 19.35,8.02 14.37,13 H 12.6 V 11.23 Z M 20.85,5.81 19.79,4.75 c -0.2,-0.2 -0.51,-0.2 -0.71,0 L 18.23,5.6 20,7.37 20.85,6.52 c 0.2,-0.2 0.2,-0.52 0,-0.71 z M 18,12.2 V 17 h 2 v 2 H 4 V 17 H 6 V 10 C 6,7.21 7.91,4.86 10.5,4.2 V 3.5 C 10.5,2.67 11.17,2 12,2 c 0.83,0 1.5,0.67 1.5,1.5 v 0.7 c 0.82,0.21 1.57,0.59 2.21,1.09 L 10.6,10.4 V 15 h 4.6 z M 10,20 h 4 c 0,1.1 -0.9,2 -2,2 -1.1,0 -2,-0.9 -2,-2 z"
     id="path7" />
</svg>
